<?xml version="1.0" encoding="UTF-8"?>
<svg xmlns="http://www.w3.org/2000/svg" id="Layer_1" data-name="Layer 1" viewBox="0 0 24 24">
  <path d="m24,9.735c0-3.876-3.331-5.559-5.764-6.787-.41-.207-1.064-.539-1.561-.847,0,0-.676-.308-.676-2.101h-2c0,1.851-.726,2.132-.726,2.132-.49.3-1.115.617-1.51.816-1.244.628-2.72,1.377-3.868,2.474C7.373,2.927,4.947.834,4.641.578L4,.044l-.641.534c-.344.287-3.359,2.883-3.359,5.768v17.654h12v-4c0-.551.448-1,1-1,.579,0,1,.469,1,1.115v3.885h2v-4c0-.551.448-1,1-1s1,.449,1,1v4h6v-11h-1.175c.752-1.046,1.175-2.18,1.175-3.265ZM6,22H2v-12h4v12Zm0-14H2v-1.654c0-1.283,1.143-2.748,2-3.629.857.882,2,2.347,2,3.629v1.654Zm16,14h-2v-2c0-1.654-1.346-3-3-3-.771,0-1.474.292-2.005.77-.526-.481-1.223-.77-1.995-.77-1.654,0-3,1.346-3,3v2h-2v-7h14v7Zm-1.889-9h-10.222c-1.17-.998-1.89-2.222-1.89-3.265,0-2.646,2.479-3.897,4.665-5.001.869-.439,1.713-.865,2.335-1.381.622.516,1.466.942,2.335,1.381,2.187,1.104,4.665,2.355,4.665,5.001,0,1.045-.718,2.266-1.889,3.265Z"/>
</svg>
