<?xml version="1.0" standalone="no"?>
<!DOCTYPE svg PUBLIC "-//W3C//DTD SVG 20010904//EN"
 "http://www.w3.org/TR/2001/REC-SVG-20010904/DTD/svg10.dtd">
<svg version="1.0" xmlns="http://www.w3.org/2000/svg"
 width="763.000000pt" height="763.000000pt" viewBox="0 0 763.000000 763.000000"
 preserveAspectRatio="xMidYMid meet">

<g transform="translate(0.000000,763.000000) scale(0.100000,-0.100000)"
fill="#000000" stroke="none">
<path d="M3278 7043 l-563 -563 -783 0 -782 0 0 -782 0 -783 -565 -565 -565
-565 29 -25 c16 -14 270 -264 565 -556 l536 -531 0 -792 0 -791 801 0 801 0
539 -532 c297 -293 543 -534 547 -536 5 -1 248 238 542 533 l534 535 813 0
813 0 0 812 0 813 537 537 537 537 -341 348 c-188 191 -430 436 -537 543
l-196 195 0 802 0 803 -792 0 -792 0 -111 113 c-60 61 -311 315 -557 562
l-447 451 -563 -563z m1022 -78 c245 -247 476 -485 513 -527 l68 -78 765 0
764 0 0 -765 0 -765 516 -522 516 -523 -516 -513 -516 -512 0 -770 0 -770
-767 0 -768 0 -515 -515 -515 -515 -525 516 -525 516 -762 -1 -763 -1 0 748 0
747 -95 95 c-52 52 -95 98 -95 101 0 4 -197 203 -438 442 l-437 436 532 533
533 533 0 753 0 752 753 0 752 0 530 530 c292 292 535 529 540 528 6 -2 210
-205 455 -453z"/>
</g>
</svg>
